<svg width="89" height="89" viewBox="0 0 89 89" fill="none" xmlns="http://www.w3.org/2000/svg">
<g clip-path="url(#clip0_5_45)">
<path d="M43.7584 40.4208C35.3405 38.2329 32.6334 35.9708 32.6334 32.4479C32.6334 28.4058 36.3788 25.5875 42.6459 25.5875C49.2467 25.5875 51.6942 28.7396 51.9167 33.375H60.1121C59.8525 26.9967 55.9588 21.1375 48.2084 19.2463V11.125H37.0834V19.135C29.8892 20.6925 24.1042 25.365 24.1042 32.5221C24.1042 41.0883 31.1871 45.3529 41.5334 47.8375C50.8042 50.0625 52.6584 53.3258 52.6584 56.7746C52.6584 59.3333 50.8413 63.4125 42.6459 63.4125C35.0067 63.4125 32.003 60.0008 31.595 55.625H23.4367C23.8817 63.7463 29.9634 68.3075 37.0834 69.8279V77.875H48.2084V69.9021C55.4396 68.53 61.1875 64.3396 61.1875 56.7375C61.1875 46.2058 52.1763 42.6087 43.7584 40.4208Z" fill="#0067F4"/>
</g>
<defs>
<clipPath id="clip0_5_45">
<rect width="89" height="89" fill="white"/>
</clipPath>
</defs>
</svg>
